# Blender v2.80 (sub 75) OBJ File: ''
# www.blender.org
mtllib Render_Studio.mtl
o Decor_Plane
v -976.522461 748.514038 -1725.036133
v 1725.036255 748.514099 -1725.036133
v 1725.036255 2268.919189 -1725.035889
v -976.522461 2268.919189 -1725.035889
v -976.522461 -0.000281 1725.036255
v 1725.036255 -0.000281 1725.036255
v 1725.036255 0.000159 -976.522461
v -976.522461 0.000159 -976.522461
v -1725.036255 748.513977 -976.522339
v -1668.058960 462.070099 -976.522400
v -1610.067993 447.335327 -1277.701172
v -1668.058960 748.513916 -1262.966187
v -1505.801636 219.234756 -976.522400
v -1511.382080 213.654251 -1283.052246
v -1511.382080 441.984283 -1511.381958
v -1505.801636 748.513977 -1505.801514
v -1449.091187 275.945251 -1449.091187
v -976.522461 56.977455 -1262.966309
v -1277.701294 114.968506 -1277.701294
v -1262.966309 56.977409 -976.522461
v -976.522461 219.234848 -1505.801636
v -1283.052246 213.654282 -1511.382080
v -1262.966309 748.513977 -1668.058838
v -1277.701294 447.335327 -1610.067871
v -976.522461 462.070221 -1668.058838
v -1725.036255 748.513428 1725.036377
v -1668.058960 462.069672 1725.036377
v -1505.801636 219.234329 1725.036255
v -1262.966309 56.976967 1725.036255
v 1725.036255 462.070221 -1668.058838
v 1725.036255 219.234848 -1505.801636
v 1725.036255 56.977455 -1262.966309
v -1725.036255 2268.919189 -976.522095
v -1668.058960 2268.919189 -1262.965942
v -1505.801636 2268.919189 -1505.801270
v -1262.966309 2268.919189 -1668.058594
v -1725.036255 2268.918701 1725.036621
vn 0.0952 0.0952 0.9909
vn -0.0000 0.0980 0.9952
vn -0.0000 -0.0000 1.0000
vn 0.0980 -0.0000 0.9952
vn 0.0980 0.9952 0.0000
vn 0.0000 1.0000 0.0000
vn 0.0000 0.9952 0.0980
vn 0.0952 0.9909 0.0952
vn 0.9909 0.0952 0.0952
vn 0.9327 0.3550 0.0639
vn 0.9150 0.2853 0.2853
vn 0.9327 0.0639 0.3550
vn 0.7068 0.7068 0.0307
vn 0.6878 0.6878 0.2322
vn 0.6878 0.2322 0.6878
vn 0.7068 0.0307 0.7068
vn 0.5774 0.5774 0.5774
vn 0.0639 0.9327 0.3550
vn 0.2853 0.9150 0.2853
vn 0.3550 0.9327 0.0639
vn 0.0307 0.7068 0.7068
vn 0.2322 0.6878 0.6878
vn 0.3550 0.0639 0.9327
vn 0.2853 0.2853 0.9150
vn 0.0639 0.3550 0.9327
vn 0.9952 0.0980 0.0000
vn 0.9239 0.3827 0.0000
vn 0.7071 0.7071 0.0000
vn 0.3827 0.9239 0.0000
vn 0.0000 0.3827 0.9239
vn 0.0000 0.7071 0.7071
vn 0.0000 0.9239 0.3827
vn 0.9952 0.0000 0.0980
vn 0.9239 -0.0000 0.3827
vn 0.7071 -0.0000 0.7071
vn 0.3827 -0.0000 0.9239
vn 1.0000 0.0000 0.0000
usemtl Material.003
s 1
f 1//1 2//2 3//3 4//4
f 5//5 6//6 7//7 8//8
f 9//9 10//10 11//11 12//12
f 10//10 13//13 14//14 11//11
f 12//12 11//11 15//15 16//16
f 11//11 14//14 17//17 15//15
f 8//8 18//18 19//19 20//20
f 18//18 21//21 22//22 19//19
f 20//20 19//19 14//14 13//13
f 19//19 22//22 17//17 14//14
f 1//1 23//23 24//24 25//25
f 23//23 16//16 15//15 24//24
f 25//25 24//24 22//22 21//21
f 24//24 15//15 17//17 22//22
f 9//9 26//26 27//27 10//10
f 10//10 27//27 28//28 13//13
f 13//13 28//28 29//29 20//20
f 20//20 29//29 5//5 8//8
f 2//2 1//1 25//25 30//30
f 30//30 25//25 21//21 31//31
f 31//31 21//21 18//18 32//32
f 32//32 18//18 8//8 7//7
f 33//33 9//9 12//12 34//34
f 34//34 12//12 16//16 35//35
f 35//35 16//16 23//23 36//36
f 36//36 23//23 1//1 4//4
f 26//26 9//9 33//33 37//37
